<?xml version="1.0" encoding="utf-8"?>
<!-- Generator: Adobe Illustrator 16.0.0, SVG Export Plug-In . SVG Version: 6.00 Build 0)  -->
<!DOCTYPE svg PUBLIC "-//W3C//DTD SVG 1.1//EN" "http://www.w3.org/Graphics/SVG/1.1/DTD/svg11.dtd">
<svg version="1.1" id="Layer_1" xmlns="http://www.w3.org/2000/svg" xmlns:xlink="http://www.w3.org/1999/xlink" x="0px" y="0px" viewBox="0 0 1200 1200" enable-background="new 0 0 1200 1200" xml:space="preserve">
<path fill="#D34A47" d="M740.603,1140.332l11.034-183.854l30.466-52.006c0,0-69.34,28.365-185.427,28.365
	c-116.089,0-184.379-27.84-184.379-27.84l34.145,56.73l12.079,178.604c0,19.146,63.146,34.668,141.043,34.668
	C677.456,1175,740.603,1159.479,740.603,1140.332 M705.799,281.772l23.159-91.539L857.206,55.285l-33.802-28.791L687.627,170.247
	l-26.89,109.366c-20.237-0.679-40.485-1.016-60.734-1.012c-142.999,0-258.924,16.298-258.924,36.396
	c0,20.101,115.925,36.396,258.924,36.396c142.997,0,258.918-16.295,258.918-36.396C858.922,300.198,796.052,287.458,705.799,281.772
	"/>
<path fill="#FFFFFF" d="M692.327,333.036c0,0-5.017,1.124-19.771,1.188c-14.758,0.062-25.235-0.096-29.409-3.896
	c-1.123-1.021-1.736-3.048-1.73-4.42c0.013-2.612,1.866-4.151,4.229-5.115l2.234,3.505c-0.972,0.335-1.525,0.732-1.528,1.155
	c-0.009,1.984,15.09,3.342,26.639,3.196c11.55-0.144,25.505-1.095,25.517-3.051c0-0.591-1.055-1.147-2.891-1.587l2.224-3.479
	c2.993,0.929,5.605,2.724,5.601,5.831C703.41,331.64,696.688,332.444,692.327,333.036"/>
<path fill="#D34A47" d="M856.954,55.55c3.225-3.725-1.669-13.252-10.93-21.275c-9.266-8.021-19.391-11.506-22.62-7.781
	c-3.228,3.725,1.67,13.251,10.935,21.271C843.6,55.789,853.728,59.277,856.954,55.55 M734.435,691.256
	c-3.039-29.244,63.966-71.596,46.771-72.953c-37.019,2.117-55.442,43.383-74.067,86.604c-6.824,15.84-30.179,83.383-45.496,75.066
	c-15.313-8.313,19.854-63.854,29.709-96.838c-11.373,8.34-53.082,40.744-63.83,10.396c-17.281,14.678-54.209,22.629-50.043-15.926
	c-9.193,16.285-29.826,39.021-54.594,29.574c-32.524-12.404,18.848-116.012,31.621-110.786c12.775,5.227-2.578,28.827-6.6,37.993
	c-8.844,20.17-19.062,45.525-12.235,50.717c11.693,8.895,43.51-33.641,44.218-34.576c5.951-7.861,22.905-59.296,36.569-53.391
	c13.664,5.907-34.083,73.817-16.229,87.295c3.601,2.719,18.332-1.678,27.294-11.373c5.799-6.271,3.805-20.166,23.133-66.26
	c19.328-46.091,36.555-103.494,49.811-99.121c13.256,4.371,2.33,33.832-2.426,44.815c-22.314,51.545-60.902,136.708-42.705,130.258
	c18.198-6.445,27.675-6.822,45.494-27.676c17.82-20.854,16.999-55.203,28.877-54.473c11.881,0.73,9.887,11.744,7.006,20.131
	c11.689-13.377,55.413-41.552,65.969-13.646c12.505,33.035-62.556,80.754-43.841,78.318c18.247-2.371,47.809-21.094,60.43-38.117
	l34.741-312.334c0,0-34.959,28.931-257.366,28.931c-222.408,0-253.75-28.329-253.75-28.329l29.577,285.086
	c15.699-44.621,52.98-134.873,111.744-131.843c26.731,1.378,62.416,52.85,31.849,54.594c-12.938,0.736-14.252-25.691-29.573-29.572
	c-11.057-2.802-26.448,6.187-36.396,15.925c-19.839,19.416-62.507,96.02-56.87,134.211c7.184,48.689,67.189-16.918,77.344-36.396
	c7.149-13.723,11.98-54.375,27.619-50.11c15.641,4.266-1.363,46.221-12.7,83.313c-12.736,41.652-19.432,85.588-35.393,80.535
	c-15.964-5.051,10.039-58.822,9.099-68.242c-15.004,13.844-42.646,48.889-78.01,31.543l18.369,177.037
	c0,0,48.82,38.572,195.889,38.572c147.066,0,197.694-37.971,197.694-37.971l22.811-205.053
	C797.277,695.361,738.216,727.631,734.435,691.256"/>
</svg>
